<svg version="1.1"
     baseProfile="full"
     width="100" height="100" 
     xmlns="http://www.w3.org/2000/svg">

<polygon points="50,0 30,50 80,100"
fill="#577284"
style="transform:rotate(0deg); transform-origin: center center;"/>
<polygon points="50,0 30,50 80,100"
fill="#577284"
style="transform:rotate(10deg); transform-origin: center center;"/>
<polygon points="50,0 30,50 80,100"
fill="#577284"
style="transform:rotate(20deg); transform-origin: center center;"/>
<polygon points="50,0 30,50 80,100"
fill="#577284"
style="transform:rotate(30deg); transform-origin: center center;"/>
<polygon points="50,0 30,50 80,100"
fill="#577284"
style="transform:rotate(40deg); transform-origin: center center;"/>
<polygon points="50,0 30,50 80,100"
fill="#577284"
style="transform:rotate(50deg); transform-origin: center center;"/>
<polygon points="50,0 30,50 80,100"
fill="#577284"
style="transform:rotate(60deg); transform-origin: center center;"/>
<polygon points="50,0 30,50 80,100"
fill="#577284"
style="transform:rotate(70deg); transform-origin: center center;"/>
<polygon points="50,0 30,50 80,100"
fill="#577284"
style="transform:rotate(80deg); transform-origin: center center;"/>
<polygon points="50,0 30,50 80,100"
fill="#577284"
style="transform:rotate(90deg); transform-origin: center center;"/>
<polygon points="50,0 30,50 80,100"
fill="#577284"
style="transform:rotate(100deg); transform-origin: center center;"/>
<polygon points="50,0 30,50 80,100"
fill="#577284"
style="transform:rotate(110deg); transform-origin: center center;"/>
<polygon points="50,0 30,50 80,100"
fill="#577284"
style="transform:rotate(120deg); transform-origin: center center;"/>
<polygon points="50,0 30,50 80,100"
fill="#577284"
style="transform:rotate(130deg); transform-origin: center center;"/>
<polygon points="50,0 30,50 80,100"
fill="#577284"
style="transform:rotate(140deg); transform-origin: center center;"/>
<polygon points="50,0 30,50 80,100"
fill="#577284"
style="transform:rotate(150deg); transform-origin: center center;"/>
<polygon points="50,0 30,50 80,100"
fill="#577284"
style="transform:rotate(160deg); transform-origin: center center;"/>
<polygon points="50,0 30,50 80,100"
fill="#577284"
style="transform:rotate(170deg); transform-origin: center center;"/>
<polygon points="50,0 30,50 80,100"
fill="#577284"
style="transform:rotate(180deg); transform-origin: center center;"/>
<polygon points="50,0 30,50 80,100"
fill="#577284"
style="transform:rotate(190deg); transform-origin: center center;"/>
<polygon points="50,0 30,50 80,100"
fill="#577284"
style="transform:rotate(200deg); transform-origin: center center;"/>
<polygon points="50,0 30,50 80,100"
fill="#577284"
style="transform:rotate(210deg); transform-origin: center center;"/>
<polygon points="50,0 30,50 80,100"
fill="#577284"
style="transform:rotate(220deg); transform-origin: center center;"/>
<polygon points="50,0 30,50 80,100"
fill="#577284"
style="transform:rotate(230deg); transform-origin: center center;"/>
<polygon points="50,0 30,50 80,100"
fill="#577284"
style="transform:rotate(240deg); transform-origin: center center;"/>
<polygon points="50,0 30,50 80,100"
fill="#577284"
style="transform:rotate(250deg); transform-origin: center center;"/>
<polygon points="50,0 30,50 80,100"
fill="#577284"
style="transform:rotate(260deg); transform-origin: center center;"/>
<polygon points="50,0 30,50 80,100"
fill="#577284"
style="transform:rotate(270deg); transform-origin: center center;"/>
<polygon points="50,0 30,50 80,100"
fill="#577284"
style="transform:rotate(280deg); transform-origin: center center;"/>
<polygon points="50,0 30,50 80,100"
fill="#577284"
style="transform:rotate(290deg); transform-origin: center center;"/>
<polygon points="50,0 30,50 80,100"
fill="#577284"
style="transform:rotate(300deg); transform-origin: center center;"/>
<polygon points="50,0 30,50 80,100"
fill="#577284"
style="transform:rotate(310deg); transform-origin: center center;"/>
<polygon points="50,0 30,50 80,100"
fill="#577284"
style="transform:rotate(320deg); transform-origin: center center;"/>
<polygon points="50,0 30,50 80,100"
fill="#577284"
style="transform:rotate(330deg); transform-origin: center center;"/>
<polygon points="50,0 30,50 80,100"
fill="#577284"
style="transform:rotate(340deg); transform-origin: center center;"/>
<polygon points="50,0 30,50 80,100"
fill="#577284"
style="transform:rotate(350deg); transform-origin: center center;"/>
<polygon points="50,0 30,50 80,100"
fill="#577284"
style="transform:rotate(360deg); transform-origin: center center;"/>

<circle cx="50%" cy="50%" r="35%" style="" fill="#577284" stroke="#F3F4F5"></circle>

<text x="33%" y="55%" fill="#F3F4F5" style="font-size: 30px; font-weight: 700; font-family: 'Times New Roman', Times, serif;">C</text>
<text x="45%" y="67%" fill="#F3F4F5" style="font-size: 30px; font-weight: 700; font-family: 'Times New Roman', Times, serif;">V</text>

</svg>